<svg xmlns="http://www.w3.org/2000/svg" viewBox="0 0 100 100">
  <defs>
    <linearGradient id="brainGradient" x1="0%" y1="0%" x2="100%" y2="100%">
      <stop offset="0%" style="stop-color:#1976d2;stop-opacity:1" />
      <stop offset="100%" style="stop-color:#dc004e;stop-opacity:1" />
    </linearGradient>
  </defs>
  
  <!-- Brain outline -->
  <path d="M50 15 C30 15, 15 30, 15 45 C15 50, 17 55, 20 58 C18 62, 20 68, 25 70 C20 75, 25 85, 35 85 L65 85 C75 85, 80 75, 75 70 C80 68, 82 62, 80 58 C83 55, 85 50, 85 45 C85 30, 70 15, 50 15 Z" 
        fill="url(#brainGradient)" 
        stroke="#333" 
        stroke-width="2"/>
        
  <!-- Brain divisions -->
  <path d="M50 20 L50 80" stroke="#333" stroke-width="1.5" opacity="0.3"/>
  <path d="M25 35 Q35 30, 45 35 Q55 40, 65 35 Q75 30, 80 40" 
        stroke="#333" 
        stroke-width="1" 
        fill="none" 
        opacity="0.4"/>
        
  <!-- Neural connections -->
  <circle cx="35" cy="40" r="3" fill="#fff" opacity="0.8"/>
  <circle cx="50" cy="35" r="3" fill="#fff" opacity="0.8"/>
  <circle cx="65" cy="40" r="3" fill="#fff" opacity="0.8"/>
  <circle cx="40" cy="55" r="3" fill="#fff" opacity="0.8"/>
  <circle cx="60" cy="55" r="3" fill="#fff" opacity="0.8"/>
  
  <!-- Connection lines -->
  <line x1="35" y1="40" x2="50" y2="35" stroke="#fff" stroke-width="1" opacity="0.6"/>
  <line x1="50" y1="35" x2="65" y2="40" stroke="#fff" stroke-width="1" opacity="0.6"/>
  <line x1="35" y1="40" x2="40" y2="55" stroke="#fff" stroke-width="1" opacity="0.6"/>
  <line x1="65" y1="40" x2="60" y2="55" stroke="#fff" stroke-width="1" opacity="0.6"/>
</svg>
